# xmcd
# Track frame offsets:
# 150
# 12492
# 27127
# 46990
# 68470
# 82152
# 103077
# 121522
# 135872
# 165750
# 194762
# 217247
# 241387
#
# Disc length: 3565 seconds
# Revision: 0
# Processed by: cddbd v1.4PL0 Copyright (c) Steve Scherf et al.
# Submitted via: VisiTrax 2.9.5.181 - For more info visit www.synapsa.com
#
DISCID=a70deb0d
DTITLE=Davis, Guy - Live
DYEAR=1995
DGENRE=
TTITLE0=Dust My Broom
TTITLE1=Tight Like That
TTITLE2=If I Had Possession Over Judgement Day
TTITLE3=Wintertime Blues
TTITLE4=Georgia Rag
TTITLE5=Candy Man
TTITLE6=Georgia Buck
TTITLE7=madison and the Pigs
TTITLE8=Stomp Down Rider Variation
TTITLE9=Watch Over Me
TTITLE10=Walkin' Blues
TTITLE11=Take Me Back
TTITLE12=Ramblin' Over
EXTD=
EXTT0=
EXTT1=
EXTT2=
EXTT3=
EXTT4=
EXTT5=
EXTT6=
EXTT7=
EXTT8=
EXTT9=
EXTT10=
EXTT11=
EXTT12=
PLAYORDER=
